<?xml version="1.0" encoding="utf-8"?>
<!-- Generator: Adobe Illustrator 22.0.1, SVG Export Plug-In . SVG Version: 6.00 Build 0)  -->
<svg version="1.1" id="Layer_1" xmlns="http://www.w3.org/2000/svg" xmlns:xlink="http://www.w3.org/1999/xlink" x="0px" y="0px"
	 viewBox="0 0 24 24" style="enable-background:new 0 0 24 24;" xml:space="preserve">
<style type="text/css">
	.st0{fill:none;}
	.st1{fill:#1B77DB;}
</style>
<g>
	<rect class="st0" width="24" height="24"/>
</g>
<g>
	<g>
		<g>
			<path class="st1" d="M1,17v3h4v-3c0-1.7,1-2.9,2.3-3.9C4.6,13.5,1,14.8,1,17z"/>
		</g>
		<g>
			<circle class="st1" cx="15" cy="8" r="4"/>
		</g>
		<g>
			<path class="st1" d="M10.3,11.8C9.5,10.7,9,9.4,9,8s0.5-2.7,1.3-3.8C9.9,4.1,9.5,4,9,4C6.8,4,5,5.8,5,8s1.8,4,4,4
				C9.5,12,9.9,11.9,10.3,11.8z"/>
		</g>
		<g>
			<path class="st1" d="M7,17v3h16v-3c0-2.7-5.3-4-8-4S7,14.3,7,17z"/>
		</g>
	</g>
</g>
</svg>
