<?xml version="1.0" encoding="utf-8"?>
<!-- Generator: Adobe Illustrator 22.0.1, SVG Export Plug-In . SVG Version: 6.00 Build 0)  -->
<svg version="1.1" id="Layer_1" xmlns="http://www.w3.org/2000/svg" xmlns:xlink="http://www.w3.org/1999/xlink" x="0px" y="0px"
	 viewBox="0 0 26.4 16" style="enable-background:new 0 0 26.4 16;" xml:space="preserve">
<style type="text/css">
	.st0{fill:#1B77DB;}
</style>
<path class="st0" d="M16.4,4c0-2.2-1.8-4-4-4c-2.2,0-4,1.8-4,4s1.8,4,4,4S16.4,6.2,16.4,4z M18.4,6v2h3v3h2V8h3V6h-3V3h-2v3H18.4z
	 M4.4,14v2h16v-2c0-2.7-5.3-4-8-4S4.4,11.3,4.4,14z"/>
<g>
	<path class="st0" d="M0.1,8.6c0,0,0,0.1,0,0.2l0.8,1.4c0,0.1,0.1,0.1,0.2,0.1l1-0.4c0.2,0.2,0.5,0.3,0.7,0.4l0.1,1
		c0,0.1,0.1,0.2,0.2,0.2h1.6c0.1,0,0.2-0.1,0.2-0.2l0.1-1c0.3-0.1,0.5-0.2,0.7-0.4l1,0.4c0,0,0.2,0,0.2-0.1l0.8-1.4
		c0.1,0,0.1-0.1,0-0.2L6.9,8c0-0.1,0-0.3,0-0.4s0-0.3,0-0.4l0.8-0.6c0,0,0-0.1,0-0.2L6.9,5c0-0.1-0.1-0.1-0.2-0.1l-1,0.4
		C5.5,5.2,5.3,5.1,5,5L4.9,4c0-0.1-0.1-0.2-0.2-0.2H3.2C3.1,3.8,3,3.9,3,4L2.9,5C2.5,5.1,2.4,5.2,2.2,5.4L1.2,5c0,0-0.3,0-0.3,0.1
		L0.1,6.5C0,6.5,0,6.6,0.1,6.7l0.8,0.6c0,0.1,0,0.3,0,0.4c0,0.2,0,0.3,0,0.4L0.1,8.6z M2.4,7.6c0-0.8,0.7-1.5,1.5-1.5
		s1.5,0.7,1.5,1.5S4.7,9.1,3.9,9.1C3,9.1,2.4,8.4,2.4,7.6z"/>
</g>
</svg>
