<?xml version="1.0" encoding="utf-8"?>
<!-- Generator: Adobe Illustrator 22.0.1, SVG Export Plug-In . SVG Version: 6.00 Build 0)  -->
<svg version="1.1" id="Layer_1" xmlns="http://www.w3.org/2000/svg" xmlns:xlink="http://www.w3.org/1999/xlink" x="0px" y="0px"
	 viewBox="0 0 24 24" style="enable-background:new 0 0 24 24;" xml:space="preserve">
<style type="text/css">
	.st0{fill:#1B77DB;}
</style>
<path class="st0" d="M18.6,8.8c0-2.2-1.8-4-4-4s-4,1.8-4,4s1.8,4,4,4S18.6,11,18.6,8.8z M6.6,18.8v2h16v-2c0-2.7-5.3-4-8-4
	C12,14.8,6.6,16.2,6.6,18.8z"/>
<g>
	<path class="st0" d="M2.2,13.3c0,0,0,0.1,0,0.2L3,14.9C3,15,3.1,15,3.2,15l1-0.4c0.2,0.2,0.5,0.3,0.7,0.4L5,16
		c0,0.1,0.1,0.2,0.2,0.2h1.6C6.9,16.2,7,16.1,7,16l0.1-1c0.3-0.1,0.5-0.2,0.7-0.4l1,0.4c0,0,0.2,0,0.2-0.1l0.8-1.4
		c0.1,0,0.1-0.1,0-0.2L9,12.7c0-0.1,0-0.3,0-0.4c0-0.1,0-0.3,0-0.4l0.8-0.6c0,0,0-0.1,0-0.2L9,9.7c0-0.1-0.1-0.1-0.2-0.1l-1,0.4
		C7.6,9.9,7.4,9.8,7.1,9.7L7,8.7c0-0.1-0.1-0.2-0.2-0.2H5.3c-0.1,0-0.2,0.1-0.2,0.2L5,9.7c-0.3,0.1-0.5,0.2-0.7,0.4l-1-0.4
		c0,0-0.2,0-0.2,0.1l-0.8,1.4c-0.1,0-0.1,0.1,0,0.2L3.1,12c0,0.1,0,0.3,0,0.4c0,0.2,0,0.3,0,0.4L2.2,13.3z M4.5,12.3
		c0-0.8,0.7-1.5,1.5-1.5s1.5,0.7,1.5,1.5S6.8,13.8,6,13.8C5.2,13.8,4.5,13.2,4.5,12.3z"/>
</g>
</svg>
