<?xml version="1.0" encoding="utf-8"?>
<!-- Generator: Adobe Illustrator 22.0.1, SVG Export Plug-In . SVG Version: 6.00 Build 0)  -->
<svg version="1.1" id="Layer_1" xmlns="http://www.w3.org/2000/svg" xmlns:xlink="http://www.w3.org/1999/xlink" x="0px" y="0px"
	 viewBox="0 0 24 24" style="enable-background:new 0 0 24 24;" xml:space="preserve">
<style type="text/css">
	.st0{fill:#1B77DB;}
</style>
<path class="st0" d="M16,12h3v3h2v-3h3v-2h-3V7h-2v3h-3V12z M6.9,10.9C6.3,10,6,9.1,6,8s0.3-2.1,0.9-2.9C6.6,5.1,6.3,5,6,5
	C4.3,5,3,6.3,3,8s1.3,3,3,3C6.3,11,6.6,10.9,6.9,10.9z M14,8c0-1.7-1.3-3-3-3S8,6.3,8,8s1.3,3,3,3S14,9.7,14,8z M0,16v2h3v-2
	c0-1.2,0.5-2.1,1.4-2.8C2.4,13.5,0,14.5,0,16z M5,16v2h12v-2c0-2-4-3-6-3S5,14,5,16z"/>
</svg>
